<?xml version="1.0" encoding="UTF-8" standalone="no"?>
<svg
   stroke="currentColor"
   fill="currentColor"
   stroke-width="0"
   viewBox="0 0 20 20"
   focusable="false"
   class="chakra-icon css-16wnzsj"
   height="1em"
   width="1em"
   version="1.1"
   id="svg16"
   sodipodi:docname="favicon.svg"
   inkscape:version="1.1.2 (b8e25be8, 2022-02-05)"
   xmlns:inkscape="http://www.inkscape.org/namespaces/inkscape"
   xmlns:sodipodi="http://sodipodi.sourceforge.net/DTD/sodipodi-0.dtd"
   xmlns="http://www.w3.org/2000/svg"
   xmlns:svg="http://www.w3.org/2000/svg">
  <defs
     id="defs20" />
  <sodipodi:namedview
     id="namedview18"
     pagecolor="#ffffff"
     bordercolor="#666666"
     borderopacity="1.0"
     inkscape:pageshadow="2"
     inkscape:pageopacity="0.0"
     inkscape:pagecheckerboard="0"
     showgrid="false"
     inkscape:zoom="35.95"
     inkscape:cx="4.5201669"
     inkscape:cy="10.333797"
     inkscape:window-width="1296"
     inkscape:window-height="969"
     inkscape:window-x="0"
     inkscape:window-y="25"
     inkscape:window-maximized="0"
     inkscape:current-layer="svg16" />
  <path
     d="M2 5a2 2 0 012-2h7a2 2 0 012 2v4a2 2 0 01-2 2H9l-3 3v-3H4a2 2 0 01-2-2V5z"
     id="path12"
     style="fill:#ffffff;fill-opacity:0.89999998"
     inkscape:export-filename="/Users/faustman/code/noice/chitchat/client/public/path14.png"
     inkscape:export-xdpi="965.98907"
     inkscape:export-ydpi="965.98907" />
  <path
     d="M15 7v2a4 4 0 01-4 4H9.828l-1.766 1.767c.28.149.599.233.938.233h2l3 3v-3h2a2 2 0 002-2V9a2 2 0 00-2-2h-1z"
     id="path14"
     style="fill:#ffffff;fill-opacity:0.89999998"
     inkscape:export-filename="/Users/faustman/code/noice/chitchat/client/public/path14.png"
     inkscape:export-xdpi="965.98907"
     inkscape:export-ydpi="965.98907" />
</svg>
